<?xml version="1.0" encoding="utf-8"?>
<!-- Generator: Adobe Illustrator 24.1.1, SVG Export Plug-In . SVG Version: 6.00 Build 0)  -->
<svg version="1.1" id="Capa_1" xmlns="http://www.w3.org/2000/svg" xmlns:xlink="http://www.w3.org/1999/xlink" x="0px" y="0px"
	 viewBox="0 0 80 80" style="enable-background:new 0 0 80 80;" xml:space="preserve">
<style type="text/css">
	.st0{clip-path:url(#SVGID_2_);}
	.st1{fill:#ECDBBA;}
	.st2{fill:#346753;}
	.st3{fill:#346751;}
</style>
<g>
	<defs>
		<rect id="SVGID_1_" width="80" height="80"/>
	</defs>
	<clipPath id="SVGID_2_">
		<use xlink:href="#SVGID_1_"  style="overflow:visible;"/>
	</clipPath>
	<g class="st0">
		<path class="st1" d="M80,9.2C80,4.1,75.9,0,70.8,0H9.2C4.1,0,0,4.1,0,9.2v61.7C0,75.9,4.1,80,9.2,80h61.7c5.1,0,9.2-4.1,9.2-9.2
			V9.2z"/>
		<path class="st2" d="M38.3,53.3c-0.6,0-1.3-0.2-1.8-0.7L25.7,41.8c-1-1-1-2.6,0-3.5c1-1,2.6-1,3.5,0l9.1,9.1l16.6-16.6
			c1-1,2.6-1,3.5,0c1,1,1,2.6,0,3.5L40.1,52.6C39.6,53.1,39,53.3,38.3,53.3z"/>
		<path class="st3" d="M70.8,80H9.2C4.1,80,0,75.9,0,70.8V9.2C0,4.1,4.1,0,9.2,0h61.7C75.9,0,80,4.1,80,9.2v61.7
			C80,75.9,75.9,80,70.8,80z M9.2,5C6.9,5,5,6.9,5,9.2v61.7C5,73.1,6.9,75,9.2,75h61.7c2.3,0,4.2-1.9,4.2-4.2V9.2
			C75,6.9,73.1,5,70.8,5H9.2z"/>
	</g>
</g>
</svg>
